<svg width="48" height="48" viewBox="0 0 48 48" fill="none" xmlns="http://www.w3.org/2000/svg">
  <!-- 外圆背景 -->
  <circle cx="24" cy="24" r="23" fill="url(#gradient1)" stroke="#1890ff" stroke-width="2"/>
  
  <!-- 飞机主体 -->
  <g transform="translate(12, 14)">
    <!-- 机身 -->
    <path d="M12 4 L20 12 L18 14 L12 10 L6 14 L4 12 L12 4 Z" fill="#ffffff"/>
    <!-- 机翼 -->
    <path d="M2 8 L12 6 L22 8 L20 10 L12 8 L4 10 L2 8 Z" fill="#ffffff" opacity="0.9"/>
    <!-- 尾翼 -->
    <path d="M12 2 L14 6 L12 8 L10 6 L12 2 Z" fill="#ffffff" opacity="0.8"/>
    <!-- 螺旋桨 -->
    <circle cx="12" cy="6" r="1.5" fill="#ffd700"/>
  </g>
  
  <!-- 装饰性圆点 -->
  <circle cx="38" cy="10" r="2" fill="#ffd700" opacity="0.7"/>
  <circle cx="10" cy="38" r="1.5" fill="#52c41a" opacity="0.6"/>
  <circle cx="35" cy="35" r="1" fill="#fa8c16" opacity="0.5"/>
  
  <!-- 渐变定义 -->
  <defs>
    <linearGradient id="gradient1" x1="0%" y1="0%" x2="100%" y2="100%">
      <stop offset="0%" style="stop-color:#667eea;stop-opacity:1" />
      <stop offset="100%" style="stop-color:#764ba2;stop-opacity:1" />
    </linearGradient>
  </defs>
</svg>